
<svg xmlns="http://www.w3.org/2000/svg" version="1.1" xmlns:xlink="http://www.w3.org/1999/xlink" preserveAspectRatio="none" x="0px" y="0px" width="1000px" height="854px" viewBox="0 0 1000 854">
<defs>
<linearGradient id="Gradient_1" gradientUnits="userSpaceOnUse" x1="248.89999999999998" y1="388.51250000000005" x2="348" y2="660.1875" spreadMethod="pad">
<stop  offset="0%" stop-color="#212228"/>

<stop  offset="100%" stop-color="#2E2F37"/>
</linearGradient>

<linearGradient id="Gradient_2" gradientUnits="userSpaceOnUse" x1="243.60000000000002" y1="697.6999999999999" x2="461.6" y2="730.4" spreadMethod="pad">
<stop  offset="0%" stop-color="#212228"/>

<stop  offset="100%" stop-color="#2E2F37"/>
</linearGradient>

<linearGradient id="Gradient_3" gradientUnits="userSpaceOnUse" x1="511.93750000000006" y1="281.61249999999995" x2="516.4625000000001" y2="763.1875" spreadMethod="pad">
<stop  offset="0%" stop-color="#212228"/>

<stop  offset="100%" stop-color="#2E2F37"/>
</linearGradient>

<linearGradient id="Gradient_4" gradientUnits="userSpaceOnUse" x1="387.41249999999997" y1="347.15" x2="377.3875" y2="481.65" spreadMethod="pad">
<stop  offset="0%" stop-color="#212228"/>

<stop  offset="100%" stop-color="#2E2F37"/>
</linearGradient>

<linearGradient id="Gradient_5" gradientUnits="userSpaceOnUse" x1="785.775" y1="697.7875" x2="566.525" y2="730.6125000000001" spreadMethod="pad">
<stop  offset="0%" stop-color="#212228"/>

<stop  offset="100%" stop-color="#2E2F37"/>
</linearGradient>

<linearGradient id="Gradient_6" gradientUnits="userSpaceOnUse" x1="642.4125" y1="346.98749999999995" x2="652.7875" y2="486.3125" spreadMethod="pad">
<stop  offset="0%" stop-color="#212228"/>

<stop  offset="100%" stop-color="#2E2F37"/>
</linearGradient>

<linearGradient id="Gradient_7" gradientUnits="userSpaceOnUse" x1="781.375" y1="390.375" x2="682.325" y2="654.925" spreadMethod="pad">
<stop  offset="0%" stop-color="#212228"/>

<stop  offset="100%" stop-color="#2E2F37"/>
</linearGradient>

<g id="Layer0_0_FILL">
<path fill="url(#Gradient_1)" stroke="none" d="
M 357.65 481.8
Q 357.2 474.45 356.15 467.8 351.85 442.55 337.2 426.2 306.45 392.05 255.45 376 217.25 483.6 227.85 544.2 243.4 633.1 365.1 657.8 340.45 601.1 353.8 530.35 358.75 503.2 357.65 481.8
M 329.35 433.2
L 329.4 433.2
Q 342.012109375 447.510546875 345.75 469.45 345.7892578125 469.512109375 345.8 469.55 346.7568359375 475.69453125 347.15 482.45 348.169921875 502.7423828125 343.45 528.45
L 343.45 528.4
Q 331.6677734375 590.9951171875 348.35 643.1 252.2103515625 617.3720703125 238.2 542.4 228.8111328125 486.540625 261.95 389.3 303.3171875 404.424609375 329.35 433.2 Z"/>

<path fill="url(#Gradient_2)" stroke="none" d="
M 323.25 658.95
Q 271.7 672.9 231.6 725.4 296.9880859375 778.840234375 469.15 758.7
L 469.2 758.7
Q 469.052734375 758.644921875 468.9 758.6 404.3236328125 734.30625 370.8 671.2 346 668.15 323.25 658.95
M 246.65 723.35
Q 280.60234375 682.7900390625 322.7 670 342.694140625 677.6640625 364.1 680.85 389.647265625 726.3322265625 431.1 751.8 304.08203125 761.229296875 246.65 723.35 Z"/>

<path fill="url(#Gradient_3)" stroke="none" d="
M 514.95 270.1
L 494.45 297.5
Q 358.9 479.65 370.95 624.95 380.6 713.05 488.7 755.55 491.6 756.55 494.45 757.45 504.95 760.6 514.95 762.2 524.95 760.6 535.45 757.45 538.3 756.55 541.2 755.55 649.3 713.05 658.95 624.95 671 479.65 535.45 297.5
L 514.95 270.1
M 648.45 624.05
L 648.5 623.8
Q 638.8263671875 705.721484375 537.75 745.6 537.6123046875 745.6861328125 537.45 745.75 537.4125 745.7626953125 537.35 745.75 534.8123046875 746.6361328125 532.3 747.4
L 532.4 747.4
Q 523.49296875 750.075390625 514.95 751.55 506.40703125 750.075390625 497.45 747.4
L 497.6 747.4
Q 495.0962890625 746.638671875 492.55 745.75 391.277734375 705.956640625 381.4 624.05 381.4162109375 623.9640625 381.4 623.85
L 381.4 623.8
Q 370.3205078125 481.9107421875 502.85 303.8
L 502.85 303.75 514.95 287.6 527 303.75 527.05 303.8
Q 659.70703125 482.0822265625 648.45 624.05 Z"/>

<path fill="url(#Gradient_4)" stroke="none" d="
M 424.2 379.95
Q 411.05 359.2 384.8 336.7 358.1 363.55 343.6 409.55 379.85 447.6 368.55 515.25 386.9 444.95 424.2 379.95
M 385.55 351.4
Q 401.8337890625 366.36484375 411.85 380.45 392.3404296875 415.3388671875 378.15 451.7 372.01171875 426.1525390625 355.5 407 366.948046875 373.5333984375 385.55 351.4 Z"/>

<path fill="url(#Gradient_5)" stroke="none" d="
M 706.65 658.95
Q 683.9 668.15 659.1 671.2 625.575390625 734.308203125 561 758.6 560.8453125 758.645703125 560.7 758.7
L 560.75 758.7
Q 732.9080078125 778.8435546875 798.3 725.4 758.2 672.9 706.65 658.95
M 665.75 680.85
Q 687.2068359375 677.665625 707.15 670 749.29765625 682.7900390625 783.25 723.35 725.81796875 761.229296875 598.75 751.8 640.251953125 726.3326171875 665.75 680.85 Z"/>

<path fill="url(#Gradient_6)" stroke="none" d="
M 661.35 515.25
Q 650.05 447.6 686.3 409.55 671.8 363.55 645.1 336.7 618.85 359.2 605.7 379.95 643 444.95 661.35 515.25
M 674.4 407
Q 657.8880859375 426.1525390625 651.75 451.7 637.559375 415.3388671875 618.05 380.45 628.066015625 366.3650390625 644.3 351.4 662.951953125 373.5337890625 674.4 407 Z"/>

<path fill="url(#Gradient_7)" stroke="none" d="
M 673.75 467.8
Q 672.7 474.45 672.25 481.8 671.15 503.2 676.1 530.35 689.45 601.1 664.8 657.8 786.5 633.1 802.05 544.2 812.65 483.6 774.45 376 723.45 392.05 692.7 426.2 678.05 442.55 673.75 467.8
M 700.5 433.2
L 700.5 433.2
Q 726.5826171875 404.424609375 767.95 389.3 801.0888671875 486.540625 791.7 542.4 777.6896484375 617.3720703125 681.55 643.1 698.2322265625 590.9951171875 686.4 528.4
L 686.4 528.45
Q 681.7298828125 502.7423828125 682.7 482.45 683.1431640625 475.69453125 684.1 469.55 684.1107421875 469.512109375 684.1 469.45 687.887890625 447.51015625 700.5 433.2 Z"/>
</g>
</defs>

<g transform="matrix( 1.727783203125, 0, 0, 1.727752685546875, -389.7,-466.5) ">
<use xlink:href="#Layer0_0_FILL"/>
</g>
</svg>
