<?xml version="1.0" encoding="UTF-8"?>
<svg xmlns="http://www.w3.org/2000/svg" id="Layer_1" data-name="Layer 1" viewBox="0 0 24 24" style="fill: #b3afc0;">
  <path d="M11.745,16.448c.182,.049,.389,.032,.51,0,1.336-.356,5.775-1.655,6.578-3.587,.089-.214,.324-.782,.075-7.942-.012-.348-.204-.665-.508-.836-.072-.042-1.824-1.012-3.756-.554-1.058,.25-2.032,.832-2.645,1.258-.612-.426-1.587-1.008-2.646-1.258-1.936-.46-3.683,.512-3.756,.554-.303,.171-.495,.488-.507,.836-.249,7.16-.014,7.728,.075,7.942,.803,1.931,5.24,3.225,6.578,3.586Zm3.359-10.972c.695-.164,1.384-.008,1.826,.145,.09,2.861,.124,5.888,.031,6.522-.297,.521-1.987,1.359-3.962,2.002V6.532c.447-.326,1.268-.857,2.104-1.056Zm-8.035,.145c.442-.153,1.129-.309,1.825-.145,.841,.199,1.659,.728,2.105,1.054v7.613c-1.954-.64-3.667-1.488-3.962-2.001-.093-.635-.059-3.661,.031-6.521Z"/>
  <path d="M22.92,5.831c-.018-.552-.483-.996-1.031-.968-.552,.017-.985,.479-.969,1.031,.206,6.602-.021,7.146-.26,7.723-.811,1.954-3.542,3.593-7.9,4.743l-.76,.2-.76-.2c-4.358-1.149-7.09-2.789-7.899-4.742-.24-.577-.467-1.122-.261-7.724,.017-.552-.417-1.014-.969-1.031-.546-.031-1.014,.417-1.031,.968-.218,7.034,.047,7.671,.413,8.553,1.073,2.588,4.181,4.576,9.237,5.909,0,0,1.038,.301,1.27,.301,.251,0,1.27-.301,1.27-.301,5.057-1.333,8.164-3.321,9.238-5.91,.366-.882,.63-1.52,.412-8.552Z"/>
</svg>
