<?xml version="1.0" encoding="UTF-8"?>
<svg xmlns="http://www.w3.org/2000/svg" id="Layer_1" data-name="Layer 1" viewBox="0 0 24 24">
  <g>
    <path d="M11.994,1C4.929,1.044,1,5.011,1,12.019c0,6.891,3.933,10.94,11.006,10.981,7.162-.042,10.861-3.737,10.994-11.017-.122-7.037-4.026-10.938-11.006-10.983Zm.012,20c-6.026-.035-8.888-2.895-9.006-9,.113-6.019,3.059-8.963,8.994-9,5.874,.038,8.904,3.072,9.006,8.981-.112,6.117-2.974,8.983-8.994,9.019Z"/>
    <path d="M12.567,10.639h-1.134c-.552,0-1,.448-1,1s.448,1,1,1h.134v3.432c0,.552,.448,1,1,1s1-.448,1-1v-4.432c0-.552-.447-1-1-1Z"/>
  </g>
  <circle cx="12" cy="7.931" r=".999"/>
</svg>
