<?xml version="1.0" encoding="UTF-8"?>
<svg xmlns="http://www.w3.org/2000/svg" id="Layer_1" data-name="Layer 1" viewBox="0 0 24 24" style="fill: #565167;">
  <path d="M11.986,1.002C7.159,1.068,2.309,5.81,2.309,10.457c0,6.416,8.773,12.146,9.145,12.382,.472,.301,.942,.104,1.112-.012,.368-.252,9.021-6.25,9.126-12.418-.146-4.77-4.85-9.341-9.705-9.407Zm2.826,12.129c-.94,.94-1.865,1.4-2.817,1.4-.076,0-.152-.003-.229-.009-.877-.067-1.696-.509-2.578-1.392-1.866-1.865-1.866-3.758,0-5.624,1.867-1.866,3.758-1.865,5.625,0,1.865,1.867,1.865,3.759,0,5.624Z"/>
  <path d="M12.018,8.108c-.409,0-.85,.246-1.416,.812-1.196,1.196-.966,1.829,0,2.796,.518,.519,.949,.783,1.316,.812,.416,.045,.909-.24,1.479-.812,1.195-1.195,.966-1.829,0-2.796-.508-.509-.925-.812-1.379-.812Z"/>
</svg>
